<svg width="87" height="102" viewBox="0 0 87 102" fill="none" xmlns="http://www.w3.org/2000/svg">
<ellipse opacity="0.0786365" cx="43.5" cy="50.8553" rx="43.5" ry="50.6685" fill="white"/>
<path d="M44 32.801C34.0609 32.801 26 40.3445 26 49.6628C26 58.9812 34.0609 66.5246 44 66.5246C45.5652 66.5246 47.2087 66.3471 48.7739 65.9034L57.7739 69.9857C57.8522 69.9857 57.9304 70.0744 58.087 70.0744C58.2435 70.0744 58.4 69.9857 58.5565 69.8969C58.7913 69.7195 58.8696 69.3645 58.8696 69.0982L58.0087 60.2236C60.5913 57.295 62 53.4789 62 49.6628C62 40.3445 53.9391 32.801 44 32.801Z" fill="#473BF0"/>
</svg>
