<svg width="241" height="240" viewBox="0 0 241 240" fill="none" xmlns="http://www.w3.org/2000/svg">
<circle cx="120.193" cy="119.873" r="119.873" fill="#337AB7"/>
<path d="M240.065 119.873C240.065 102.456 236.27 85.2477 228.943 69.4466L120.193 119.873H240.065Z" fill="#FFC700"/>
<path d="M230.206 72.2653C222.909 55.4027 211.833 40.4432 197.834 28.5425C183.836 16.6417 167.288 8.11829 149.471 3.63056C131.654 -0.857166 113.043 -1.18905 95.0773 2.66054C77.1114 6.51014 60.2708 14.4382 45.8565 25.8322L120.193 119.873L230.206 72.2653Z" fill="#ADFF00"/>
<path d="M56.2966 18.449C35.775 31.3774 19.658 50.2268 10.0744 72.5076C0.49073 94.7884 -2.10861 119.452 2.61969 143.241L120.193 119.873L56.2966 18.449Z" fill="#FF0000"/>
<circle cx="120.192" cy="119.873" r="86.1058" fill="white"/>
</svg>
