<svg width="18" height="15" viewBox="0 0 18 15" fill="none" xmlns="http://www.w3.org/2000/svg">
<path opacity="0.402367" d="M18 1.6738C17.325 1.96288 16.6125 2.14356 15.8625 2.25197C16.6125 1.81834 17.2125 1.13176 17.475 0.300635C16.7625 0.698129 15.975 0.987216 15.1125 1.16789C14.4375 0.481314 13.4625 0.0476837 12.4125 0.0476837C10.3875 0.0476837 8.7375 1.63766 8.7375 3.589C8.7375 3.87808 8.775 4.13103 8.85 4.38399C5.8125 4.23944 3.075 2.83014 1.2375 0.661993C0.9375 1.20403 0.75 1.7822 0.75 2.43265C0.75 3.66127 1.3875 4.74534 2.4 5.39579C1.8 5.35965 1.2375 5.21511 0.7125 4.96216V4.99829C0.7125 6.73281 1.9875 8.17825 3.675 8.50347C3.375 8.57574 3.0375 8.61188 2.7 8.61188C2.475 8.61188 2.2125 8.57574 1.9875 8.53961C2.475 9.9489 3.825 10.9968 5.4375 10.9968C4.1625 11.9364 2.5875 12.5145 0.8625 12.5145C0.5625 12.5145 0.2625 12.5145 0 12.4784C1.65 13.4902 3.5625 14.0684 5.6625 14.0684C12.45 14.0684 16.1625 8.64801 16.1625 3.95035C16.1625 3.80581 16.1625 3.62513 16.1625 3.48059C16.875 3.01082 17.5125 2.39651 18 1.6738Z" fill="#161C2D"/>
</svg>
