<svg width="19" height="18" viewBox="0 0 19 18" fill="none" xmlns="http://www.w3.org/2000/svg">
<path d="M18.2083 0.178253H0.791667C0.354441 0.178253 0 0.509554 0 0.918235V17.1978C0 17.6065 0.354441 17.9378 0.791667 17.9378H10.1485V11.0604H7.67244V8.38011H10.1485V6.40349C10.1485 4.10963 11.6474 2.86058 13.8366 2.86058C14.8852 2.86058 15.7865 2.93356 16.0491 2.96618V5.36339L14.5308 5.36404C13.3402 5.36404 13.1097 5.89286 13.1097 6.66888V8.38011H15.9492L15.5794 11.0604H13.1097V17.9378H18.2083C18.6456 17.9378 19 17.6065 19 17.1978V0.918235C19 0.509554 18.6456 0.178253 18.2083 0.178253Z" fill="#A1A3AA"/>
</svg>
